<svg width="28" height="28" viewBox="0 0 28 28" fill="none" xmlns="http://www.w3.org/2000/svg">
<path d="M27.6231 17.8458C27.1221 17.5045 26.3082 17.5036 25.8072 17.8458L15.2839 25.0154V0.875073C15.2839 0.392001 14.7091 0 13.9995 0C13.2898 0 12.715 0.392073 12.715 0.875073V25.0154L2.19173 17.8467C1.69068 17.5045 0.876842 17.5045 0.375789 17.8467C-0.125263 18.1889 -0.125263 18.7428 0.375789 19.0841L13.0914 27.7466C13.5874 28.0845 14.4127 28.0845 14.9086 27.7466L27.6243 19.0841C28.1254 18.7419 28.1254 18.188 27.6231 17.8458C28.1254 18.188 27.1221 17.5045 27.6231 17.8458Z" fill="#A8A8A8"/>
</svg>
